<svg width="125" height="61" viewBox="0 0 125 61" fill="none" xmlns="http://www.w3.org/2000/svg">
<g clip-path="url(#clip0_76_499)">
<path d="M15.3621 37.4738L13.8087 48.9054C13.6321 50.1452 13.1702 50.4132 12.3957 50.4132H10.5751C9.79618 50.4132 9.44293 50.059 9.14403 49.0507L7.8352 44.5816C7.79897 44.4408 7.78086 44.4227 7.69481 44.4227C7.60876 44.4227 7.57253 44.4408 7.5363 44.5816L6.22747 49.0507C5.92857 50.059 5.57532 50.4132 4.79636 50.4132H2.97578C2.19682 50.4132 1.73941 50.1452 1.56279 48.9054L0.00939941 37.4738V37.4375C0.00939941 37.2785 0.167908 37.2422 0.290186 37.2422H3.29732C3.43772 37.2422 3.54641 37.383 3.56 37.5783L4.425 45.4309C4.44312 45.5717 4.46123 45.6626 4.54728 45.6626C4.61974 45.6626 4.65144 45.5717 4.68767 45.4309L5.71118 41.852C5.86969 41.2662 6.20483 41.089 6.75281 41.089H8.60963C9.15762 41.089 9.49275 41.2662 9.65126 41.852L10.6748 45.4309C10.711 45.5717 10.7472 45.6626 10.8152 45.6626C10.9012 45.6626 10.9193 45.5717 10.9374 45.4309L11.8025 37.5783C11.8206 37.383 11.9247 37.2422 12.0651 37.2422H15.0723C15.1945 37.2422 15.353 37.2785 15.353 37.4375V37.4738H15.3621Z" fill="white"/>
<path d="M21.4576 50.5767C18.5229 50.5767 16.032 49.0689 16.032 44.7452V42.9194C16.032 38.5957 18.5229 37.0696 21.4576 37.0696C24.3922 37.0696 26.8831 38.5957 26.8831 42.9194V44.7452C26.8831 49.0689 24.3922 50.5767 21.4576 50.5767ZM23.2419 42.9194C23.2419 41.0209 22.6939 40.2443 21.4576 40.2443C20.2212 40.2443 19.6732 41.0255 19.6732 42.9194V44.7452C19.6732 46.6436 20.2212 47.4021 21.4576 47.4021C22.6939 47.4021 23.2419 46.6391 23.2419 44.7452V42.9194Z" fill="white"/>
<path d="M43.0193 37.4738L41.4659 48.9054C41.2893 50.1452 40.8273 50.4132 40.0529 50.4132H38.2323C37.4534 50.4132 37.1001 50.059 36.8012 49.0507L35.4924 44.5816C35.4562 44.4408 35.438 44.4227 35.352 44.4227C35.2659 44.4227 35.2297 44.4408 35.1935 44.5816L33.8846 49.0507C33.5857 50.059 33.228 50.4132 32.4535 50.4132H30.633C29.854 50.4132 29.3966 50.1452 29.22 48.9054L27.662 37.4738V37.4375C27.662 37.2785 27.8206 37.2422 27.9428 37.2422H30.95C31.0904 37.2422 31.1991 37.383 31.2126 37.5783L32.0776 45.4309C32.0958 45.5717 32.1139 45.6626 32.1999 45.6626C32.2724 45.6626 32.3041 45.5717 32.3403 45.4309L33.3638 41.852C33.5223 41.2662 33.8575 41.089 34.4055 41.089H36.2623C36.8103 41.089 37.1454 41.2662 37.3039 41.852L38.3274 45.4309C38.3637 45.5717 38.3999 45.6626 38.4678 45.6626C38.5539 45.6626 38.572 45.5717 38.5901 45.4309L39.4551 37.5783C39.4732 37.383 39.5774 37.2422 39.7178 37.2422H42.7204C42.8427 37.2422 43.0012 37.2785 43.0012 37.4375V37.4738H43.0193Z" fill="white"/>
<path d="M48.8524 50.5767C47.4032 50.5767 46.2166 50.3814 45.2837 50.1135C45.1071 50.059 44.9123 49.9545 44.9123 49.7592V47.5792C44.9123 47.3476 45.0709 47.2249 45.2475 47.2249H45.2837C46.0264 47.2976 47.9331 47.4884 48.8705 47.4884C49.7355 47.4884 49.9846 47.1523 49.9846 46.5846C49.9846 46.2303 49.808 46.035 49.1558 45.6444L46.6107 44.1366C44.9486 43.1601 44.5093 41.9565 44.5093 40.5895C44.5093 38.6592 45.569 37.0605 49.1423 37.0605C50.5371 37.0605 52.4302 37.2922 53.1548 37.5056C53.3133 37.5601 53.4718 37.6464 53.4718 37.8417V40.0581C53.4718 40.2352 53.3495 40.3942 53.1548 40.3942H53.1186C52.394 40.3397 50.3786 40.1626 49.106 40.1626C48.4539 40.1626 48.2229 40.3942 48.2229 40.7666C48.2229 41.0845 48.3814 41.2616 49.1423 41.6704L51.529 42.9466C53.2454 43.8686 53.8613 45.0404 53.8613 46.5074C53.8613 48.4921 52.4981 50.5677 48.8615 50.5677L48.8524 50.5767Z" fill="white"/>
<path d="M65.3283 37.6192L62.7287 43.7369C62.3573 44.6044 61.9498 45.0676 61.4742 45.2629V50.0681C61.4742 50.2634 61.3157 50.4223 61.121 50.4223H58.2407C58.0459 50.4223 57.9055 50.2634 57.9055 50.0681V45.2629C57.43 45.0676 57.0224 44.6089 56.651 43.7369L54.0515 37.6192C54.0334 37.5647 54.0153 37.5284 54.0153 37.4784C54.0153 37.3558 54.1013 37.2468 54.2643 37.2468H57.4617C57.6383 37.2468 57.7425 37.4057 57.8149 37.5829L59.5133 42.279C59.5676 42.4198 59.6355 42.4561 59.6899 42.4561C59.7442 42.4561 59.8122 42.4198 59.8665 42.279L61.5648 37.5829C61.6373 37.4057 61.7414 37.2468 61.9181 37.2468H65.1199C65.2784 37.2468 65.369 37.3512 65.369 37.4784C65.369 37.5329 65.3509 37.5692 65.3328 37.6192H65.3283Z" fill="white"/>
<path d="M69.6895 50.5767C68.2403 50.5767 67.0583 50.3814 66.1208 50.1135C65.9442 50.059 65.7494 49.9545 65.7494 49.7592V47.5792C65.7494 47.3476 65.908 47.2249 66.0846 47.2249H66.1208C66.8635 47.2976 68.7747 47.4884 69.7076 47.4884C70.5726 47.4884 70.8217 47.1523 70.8217 46.5846C70.8217 46.2303 70.6451 46.035 69.9884 45.6444L67.4432 44.1366C65.7812 43.1601 65.3419 41.9565 65.3419 40.5895C65.3419 38.6592 66.4016 37.0605 69.9748 37.0605C71.3697 37.0605 73.2628 37.2922 73.9874 37.5056C74.1459 37.5601 74.3044 37.6464 74.3044 37.8417V40.0581C74.3044 40.2352 74.1821 40.3942 73.9874 40.3942H73.9511C73.2265 40.3397 71.2112 40.1626 69.9386 40.1626C69.2819 40.1626 69.0555 40.3942 69.0555 40.7666C69.0555 41.0845 69.214 41.2616 69.9748 41.6704L72.3615 42.9466C74.078 43.8686 74.6939 45.0404 74.6939 46.5074C74.6939 48.4921 73.3352 50.5677 69.6941 50.5677L69.6895 50.5767Z" fill="white"/>
<path d="M84.5576 40.1898H81.9219V50.0635C81.9219 50.2588 81.7634 50.4178 81.5686 50.4178H78.6883C78.4936 50.4178 78.335 50.2588 78.335 50.0635V40.1898H75.6495C75.4547 40.1898 75.2962 40.049 75.2962 39.8537V37.5829C75.2962 37.3876 75.4547 37.2468 75.6495 37.2468H84.5576C84.7524 37.2468 84.929 37.3876 84.929 37.5829V39.8537C84.929 40.049 84.7524 40.1898 84.5576 40.1898Z" fill="white"/>
<path d="M93.6923 50.3633C93.022 50.4496 91.926 50.5767 90.2096 50.5767C87.9452 50.5767 85.6853 50.0454 85.6853 46.6073V41.0391C85.6853 37.6192 87.9497 37.0696 90.2096 37.0696C91.926 37.0696 93.0175 37.1923 93.6923 37.2831C93.9232 37.3194 94.0455 37.4239 94.0455 37.6374V39.7992C94.0455 39.9945 93.887 40.1535 93.6923 40.1535H90.1235C89.4895 40.1535 89.2767 40.3488 89.2767 41.0391V42.3335H93.6243C93.8191 42.3335 93.9776 42.4925 93.9776 42.6878V44.777C93.9776 44.9723 93.8191 45.1312 93.6243 45.1312H89.2767V46.6027C89.2767 47.2931 89.4895 47.4884 90.1235 47.4884H93.6923C93.887 47.4884 94.0455 47.6473 94.0455 47.8426V50.0045C94.0455 50.218 93.9232 50.3224 93.6923 50.3587V50.3633Z" fill="white"/>
<path d="M103.026 50.2543C102.564 50.4132 101.663 50.5722 100.553 50.5722C97.3018 50.5722 95.1098 48.8009 95.1098 44.7406V42.9148C95.1098 38.8545 97.3018 37.0833 100.553 37.0833C101.668 37.0833 102.569 37.2422 103.026 37.4012C103.307 37.492 103.416 37.542 103.416 37.7918V40.0626C103.416 40.2943 103.307 40.3987 103.099 40.3987H103.044C102.32 40.326 101.577 40.2398 100.572 40.2398C99.616 40.2398 98.751 40.6667 98.751 42.9148V44.7406C98.751 46.9751 99.5979 47.4157 100.572 47.4157C101.545 47.4157 102.324 47.3249 103.044 47.2567H103.099C103.311 47.2567 103.416 47.3612 103.416 47.5928V49.8637C103.416 50.0953 103.307 50.1634 103.026 50.2543Z" fill="white"/>
<path d="M121.083 32.3644H111.663C109.933 32.3644 107.972 31.5468 107.972 29.3532V19.9064C107.972 18.9617 107.329 17.4539 105.526 17.4539H96.1061C94.7565 17.4539 93.6651 18.553 93.6651 19.9064V29.3532C93.6651 30.7066 94.7565 31.8012 96.1061 31.8012H105.526C107.564 31.8012 109.217 32.5142 109.217 34.8078V44.2592C109.217 45.6126 110.309 46.7071 111.658 46.7071H121.078C122.428 46.7071 123.519 45.6126 123.519 44.2592V34.8078C123.519 33.6951 122.69 32.3598 121.078 32.3598L121.083 32.3644Z" fill="#8DC63F"/>
<path d="M97.5825 14.3473H107.002C109.457 14.3473 110.698 15.3193 110.698 17.3585V26.8053C110.698 28.1587 111.789 29.2578 113.139 29.2578H122.559C123.909 29.2578 125 28.1587 125 26.8053V17.3585C125 16.0505 123.976 14.9105 122.559 14.9105H113.139C111.006 14.9105 109.448 13.6025 109.448 11.9039V2.44799C109.448 1.00372 108.488 0 107.002 0H97.5825C96.2329 0 95.1415 1.09456 95.1415 2.44799V11.8993C95.1415 13.2528 96.2375 14.3473 97.5825 14.3473Z" fill="#27AAE1"/>
<path d="M18.627 60.1461H17.9251L17.368 58.2114H17.3318L16.7747 60.1461H16.0637L15.1851 57.0033H15.8192L16.3988 59.1424H16.4351L16.9966 57.0033H17.685L18.2557 59.1288H18.2919L18.858 57.0033H19.5056L18.618 60.1461H18.627Z" fill="#A9ABAE"/>
<path d="M22.4267 57.353C22.7166 57.6754 22.8615 58.0796 22.8615 58.5656C22.8615 59.0516 22.7166 59.4513 22.4267 59.7828C22.1369 60.1098 21.7429 60.2778 21.2492 60.2778C20.7556 60.2778 20.3706 60.1143 20.0853 59.7828C19.8 59.4558 19.6551 59.047 19.6551 58.5656C19.6551 58.0842 19.8 57.6754 20.0853 57.353C20.3706 57.0305 20.7601 56.867 21.2492 56.867C21.7383 56.867 22.1324 57.0305 22.4267 57.353ZM21.9059 59.3604C22.069 59.1515 22.1459 58.8881 22.1459 58.5656C22.1459 58.2431 22.0644 57.9797 21.9059 57.7799C21.7474 57.5755 21.5255 57.4756 21.2492 57.4756C20.973 57.4756 20.7601 57.5755 20.6016 57.7799C20.4431 57.9797 20.3616 58.2431 20.3616 58.5656C20.3616 58.8881 20.4431 59.1515 20.6016 59.3604C20.7601 59.5693 20.9775 59.6738 21.2492 59.6738C21.521 59.6738 21.7474 59.5693 21.9059 59.3604Z" fill="#A9ABAE"/>
<path d="M26.4528 60.1461H25.7509L25.1938 58.2114H25.1576L24.6005 60.1461H23.894L23.0154 57.0033H23.6495L24.2292 59.1424H24.2654L24.827 57.0033H25.5154L26.0815 59.1288H26.1177L26.6838 57.0033H27.3314L26.4438 60.1461H26.4528Z" fill="#A9ABAE"/>
<path d="M32.2542 58.7609C32.3765 58.8881 32.4354 59.0516 32.4218 59.256C32.4037 59.5375 32.2633 59.7783 31.9961 59.9781C31.7289 60.1779 31.4119 60.2778 31.0405 60.2778C30.4789 60.2778 30.094 60.1325 29.8856 59.8418C29.6773 59.5512 29.5686 59.3059 29.5596 59.1061H30.2027C30.2208 59.256 30.2978 59.3877 30.4382 59.5012C30.5786 59.6148 30.7688 59.6693 31.0088 59.6693C31.2081 59.6693 31.3711 59.6329 31.4934 59.5648C31.6157 59.4967 31.6881 59.4013 31.7108 59.2877C31.7243 59.206 31.6972 59.1333 31.6383 59.0788C31.5794 59.0198 31.4934 58.9653 31.3847 58.9244C31.2126 58.8517 31.0269 58.7927 30.8231 58.7564C30.6193 58.7155 30.4517 58.6792 30.3204 58.6383C30.1121 58.5702 29.9491 58.4657 29.8268 58.3249C29.7045 58.1886 29.6501 58.007 29.6683 57.7935C29.6864 57.5619 29.8087 57.3439 30.0396 57.1441C30.2706 56.9442 30.5831 56.8443 30.9816 56.8443C31.4164 56.8443 31.747 56.9624 31.9734 57.1986C32.1999 57.4347 32.3086 57.6664 32.295 57.8934H31.6609C31.6609 57.8071 31.6111 57.7118 31.507 57.6073C31.3983 57.5028 31.2216 57.4483 30.9771 57.4483C30.7642 57.4483 30.6103 57.4847 30.5061 57.5574C30.4019 57.63 30.3476 57.7118 30.3431 57.8071C30.3431 57.9207 30.3793 58.0024 30.4608 58.0479C30.5423 58.0933 30.6374 58.1342 30.7552 58.1659C30.8956 58.2068 31.0767 58.2477 31.2896 58.284C31.5024 58.3249 31.6836 58.3794 31.8376 58.4612C31.9916 58.5384 32.1319 58.6383 32.2542 58.7655V58.7609Z" fill="#A9ABAE"/>
<path d="M34.265 60.4277C34.2243 60.5413 34.1654 60.6412 34.0839 60.7229C34.0069 60.8047 33.9254 60.8683 33.8439 60.9137C33.7578 60.9636 33.6582 60.9909 33.5495 60.9954C33.4408 61 33.3366 61.0045 33.246 61.0045H32.9517V60.4459H33.2642C33.3547 60.4459 33.4363 60.4277 33.5132 60.3869C33.5902 60.346 33.6401 60.296 33.6627 60.2234L33.7533 60.0326L32.4943 56.9987H33.1781L34.0884 59.1651L34.9715 56.9987H35.6509L34.265 60.4232V60.4277Z" fill="#A9ABAE"/>
<path d="M38.3365 58.7609C38.4588 58.8881 38.5176 59.0516 38.504 59.256C38.4859 59.5375 38.3455 59.7783 38.0783 59.9781C37.8111 60.1779 37.4941 60.2778 37.1228 60.2778C36.5612 60.2778 36.1762 60.1325 35.9679 59.8418C35.7596 59.5512 35.6509 59.3059 35.6464 59.1061H36.2895C36.3076 59.256 36.3846 59.3877 36.525 59.5012C36.6653 59.6148 36.8556 59.6693 37.0956 59.6693C37.2949 59.6693 37.4579 59.6329 37.5802 59.5648C37.7024 59.4967 37.7749 59.4013 37.7976 59.2877C37.8111 59.206 37.7885 59.1333 37.7296 59.0788C37.6707 59.0198 37.5847 58.9653 37.476 58.9244C37.3039 58.8517 37.1182 58.7927 36.9144 58.7564C36.7106 58.7155 36.5431 58.6792 36.4163 58.6383C36.2079 58.5702 36.0449 58.4657 35.9226 58.3249C35.8003 58.1886 35.746 58.007 35.7641 57.7935C35.7822 57.5619 35.9045 57.3439 36.1355 57.1441C36.3664 56.9442 36.6835 56.8443 37.0775 56.8443C37.5122 56.8443 37.8428 56.9624 38.0693 57.1986C38.2957 57.4347 38.3999 57.6664 38.3908 57.8934H37.7568C37.7568 57.8071 37.707 57.7118 37.6028 57.6073C37.4941 57.5028 37.3175 57.4483 37.0729 57.4483C36.8601 57.4483 36.7016 57.4847 36.6019 57.5574C36.4978 57.63 36.4434 57.7118 36.4389 57.8071C36.4389 57.9207 36.4751 58.0024 36.5567 58.0479C36.6382 58.0933 36.7333 58.1342 36.851 58.1659C36.9914 58.2068 37.1726 58.2477 37.3854 58.284C37.5983 58.3249 37.784 58.3794 37.9334 58.4612C38.0874 58.5384 38.2278 58.6383 38.3501 58.7655L38.3365 58.7609Z" fill="#A9ABAE"/>
<path d="M39.7766 60.1552C39.6544 60.1552 39.5502 60.128 39.4596 60.078C39.3736 60.0281 39.2966 59.969 39.2332 59.9054C39.1652 59.8328 39.1245 59.751 39.0973 59.6556C39.0747 59.5648 39.0611 59.4422 39.0611 59.2832V57.5664H38.6807V57.0078H39.0611V56.0313H39.7314V56.9987H40.1888V57.5619H39.7359V59.3559C39.7359 59.4058 39.763 59.4558 39.8174 59.5058C39.8717 59.5421 39.9351 59.5648 39.9985 59.5784C40.062 59.5875 40.1254 59.5921 40.1888 59.5921V60.1507H39.7721L39.7766 60.1552Z" fill="#A9ABAE"/>
<path d="M41.2349 58.7836C41.2575 59.0289 41.3572 59.2378 41.5202 59.4149C41.6878 59.592 41.8871 59.6783 42.1226 59.6783C42.358 59.6783 42.5301 59.6284 42.6524 59.5239C42.7792 59.4195 42.8562 59.3241 42.8834 59.2332H43.6035C43.5355 59.4603 43.3861 59.6874 43.1597 59.9236C42.9332 60.1598 42.589 60.2778 42.1361 60.2778C41.6833 60.2778 41.2802 60.1098 40.9768 59.7783C40.6733 59.4467 40.5193 59.038 40.5193 58.5611C40.5193 58.0842 40.6688 57.6664 40.9632 57.3393C41.2575 57.0123 41.647 56.8443 42.1316 56.8443C42.5528 56.8443 42.9332 57.0033 43.2638 57.3166C43.5944 57.63 43.7484 58.1205 43.7167 58.7882H41.2304L41.2349 58.7836ZM43.0057 58.2341C42.9785 57.9979 42.8834 57.8026 42.7294 57.6573C42.5754 57.5074 42.3716 57.4347 42.1271 57.4347C41.8916 57.4347 41.6968 57.5074 41.5383 57.6482C41.3844 57.7935 41.2802 57.9888 41.2349 58.2386H43.0057V58.2341Z" fill="#A9ABAE"/>
<path d="M47.8198 60.1461V58.2023C47.8198 57.9752 47.7926 57.8026 47.7338 57.6709C47.6794 57.5437 47.539 57.4801 47.3171 57.4892C47.1178 57.5029 46.9639 57.5755 46.8552 57.7163C46.7465 57.8571 46.6921 58.0524 46.6921 58.3022V60.1325H46.04V58.1977C46.04 57.9707 46.0083 57.7981 45.9449 57.6664C45.8815 57.5392 45.7366 57.4756 45.5146 57.4847C45.329 57.4983 45.1795 57.571 45.0708 57.7118C44.9621 57.8526 44.9123 58.0479 44.9168 58.2977V60.128H44.2511V56.9987H44.9168V57.2849C45.0165 57.1804 45.1387 57.085 45.2882 56.9896C45.4377 56.8943 45.6279 56.8579 45.8543 56.8716C46.0038 56.8897 46.1396 56.9351 46.2619 57.0078C46.3842 57.085 46.4838 57.1986 46.5563 57.3484C46.6378 57.2531 46.7646 57.1441 46.9367 57.0169C47.1088 56.8852 47.3488 56.8398 47.6568 56.8716C47.9557 56.9033 48.1731 57.0305 48.2999 57.2531C48.4267 57.4756 48.4901 57.7209 48.4901 57.9843V60.128H47.8198V60.1461Z" fill="#A9ABAE"/>
<path d="M54.3685 60.1825L53.9654 59.7238C53.7526 59.9145 53.5307 60.0553 53.3042 60.1461C53.0733 60.237 52.8378 60.2824 52.5977 60.2824C52.24 60.2824 51.9229 60.1598 51.6467 59.9191C51.3704 59.6738 51.2346 59.3559 51.2346 58.9608C51.2346 58.661 51.3251 58.4067 51.5063 58.1841C51.6874 57.9616 51.9275 57.7663 52.2218 57.5937C52.1358 57.4892 52.0407 57.3484 51.9275 57.1849C51.8188 57.0169 51.7508 56.8443 51.7237 56.6717C51.6829 56.3493 51.778 56.0768 52.0045 55.8497C52.2309 55.6226 52.5298 55.5136 52.9057 55.5136C53.2544 55.5136 53.5443 55.6226 53.7752 55.836C54.0017 56.054 54.1013 56.3129 54.0741 56.6127C54.0515 56.8852 53.9473 57.1123 53.7662 57.2939C53.585 57.4756 53.3812 57.6255 53.1593 57.7436L53.9654 58.711C54.0107 58.6065 54.056 58.4793 54.1013 58.3294C54.1466 58.1841 54.1692 58.066 54.1738 57.9797H54.7761C54.7489 58.1841 54.6946 58.4021 54.6221 58.6383C54.5497 58.8745 54.4636 59.0652 54.373 59.2196L55.1293 60.1825H54.364H54.3685ZM52.6068 58.0479C52.4302 58.1432 52.2626 58.2568 52.1041 58.3976C51.9411 58.5384 51.8595 58.7155 51.855 58.929C51.855 59.1152 51.9184 59.2878 52.0588 59.4376C52.1992 59.5875 52.3894 59.6693 52.6249 59.6783C52.7925 59.6783 52.96 59.6466 53.1231 59.5693C53.2906 59.4921 53.4446 59.3831 53.5805 59.2333L52.6023 58.0433L52.6068 58.0479ZM53.2137 57.0214C53.354 56.9124 53.4356 56.7853 53.4582 56.6308C53.4854 56.4764 53.4446 56.3402 53.3314 56.2266C53.2182 56.1131 53.0778 56.054 52.9012 56.054C52.7245 56.054 52.5977 56.1085 52.4845 56.213C52.3758 56.3175 52.3351 56.4492 52.3622 56.6036C52.3939 56.7308 52.4528 56.8534 52.5298 56.9669C52.6068 57.085 52.6928 57.1895 52.7834 57.2803C52.9329 57.2122 53.0733 57.1214 53.2091 57.0123L53.2137 57.0214Z" fill="#A9ABAE"/>
<path d="M58.4852 60.1552C58.3629 60.1552 58.2588 60.128 58.1682 60.078C58.0821 60.0281 58.0051 59.969 57.9417 59.9054C57.8783 59.8328 57.833 59.751 57.8059 59.6556C57.7832 59.5648 57.7696 59.4422 57.7696 59.2832V57.5664H57.3892V57.0078H57.7696V56.0313H58.4399V56.9987H58.8973V57.5619H58.4444V59.3559C58.4444 59.4058 58.4716 59.4558 58.5214 59.5058C58.5803 59.5421 58.6392 59.5648 58.7026 59.5784C58.766 59.5875 58.8294 59.5921 58.8928 59.5921V60.1507H58.4761L58.4852 60.1552Z" fill="#A9ABAE"/>
<path d="M59.9435 58.7836C59.9661 59.0289 60.0612 59.2378 60.2288 59.4149C60.3964 59.592 60.5956 59.6783 60.8356 59.6783C61.0757 59.6783 61.2387 59.6284 61.3655 59.5239C61.4923 59.4195 61.5693 59.3241 61.5965 59.2332H62.3166C62.2486 59.4603 62.0992 59.6874 61.8682 59.9236C61.6418 60.1598 61.2976 60.2778 60.8402 60.2778C60.3828 60.2778 59.9842 60.1098 59.6808 59.7783C59.3728 59.4467 59.2234 59.038 59.2234 58.5611C59.2234 58.0842 59.3683 57.6664 59.6672 57.3393C59.9616 57.0123 60.3511 56.8443 60.8356 56.8443C61.2568 56.8443 61.6372 57.0033 61.9679 57.3166C62.2985 57.63 62.4524 58.1205 62.4207 58.7882H59.9344L59.9435 58.7836ZM61.7142 58.2341C61.6871 57.9979 61.5965 57.8026 61.438 57.6573C61.284 57.5074 61.0802 57.4347 60.8356 57.4347C60.5911 57.4347 60.4009 57.5074 60.2469 57.6482C60.0884 57.7935 59.9888 57.9888 59.9435 58.2386H61.7142V58.2341Z" fill="#A9ABAE"/>
<path d="M65.1833 58.0115C65.1606 57.9025 65.0836 57.7845 64.9614 57.6573C64.8391 57.5301 64.6534 57.4665 64.4089 57.4665C64.1281 57.4665 63.9107 57.571 63.7522 57.7754C63.5937 57.9798 63.5167 58.2432 63.5167 58.5656C63.5167 58.8881 63.5937 59.1515 63.7567 59.3604C63.9152 59.5648 64.1326 59.6693 64.4089 59.6693C64.6262 59.6693 64.7983 59.6102 64.9342 59.4967C65.0701 59.3786 65.1516 59.256 65.1788 59.1197H65.8943C65.8218 59.4059 65.6633 59.6693 65.4143 59.9145C65.1697 60.1598 64.83 60.2779 64.4043 60.2779C63.9107 60.2779 63.5212 60.1144 63.2359 59.7828C62.9506 59.4558 62.8102 59.0471 62.8102 58.5656C62.8102 58.0842 62.9551 57.6755 63.2359 57.3485C63.5212 57.0214 63.9107 56.8625 64.4043 56.8625C64.8346 56.8625 65.1788 56.9897 65.4414 57.2395C65.6996 57.4892 65.8581 57.7481 65.9079 58.0161H65.1878L65.1833 58.0115Z" fill="#A9ABAE"/>
<path d="M68.4893 60.1507V58.2931C68.4893 58.0297 68.435 57.8344 68.3263 57.7163C68.2176 57.5937 68.0546 57.5346 67.8281 57.5346C67.5926 57.5346 67.3979 57.6119 67.2484 57.7708C67.099 57.9298 67.0265 58.1296 67.0265 58.3749V60.1507H66.3608V55.7634H67.0265V57.2939C67.1624 57.1713 67.3209 57.0668 67.5066 56.9806C67.6923 56.8943 67.9187 56.867 68.1768 56.8943C68.5165 56.926 68.7611 57.0623 68.9105 57.303C69.0645 57.5437 69.1415 57.7754 69.1415 57.9934V60.1416H68.4803L68.4893 60.1507Z" fill="#A9ABAE"/>
<path d="M71.9539 60.1507V58.2931C71.9494 58.0297 71.895 57.8344 71.7863 57.7163C71.6777 57.5937 71.5101 57.5346 71.2882 57.5346C71.0527 57.5346 70.8625 57.6119 70.713 57.7663C70.5681 57.9207 70.4956 58.1251 70.4956 58.3749V60.1507H69.8299V57.0078H70.4956V57.2894C70.6315 57.1668 70.7855 57.0623 70.9666 56.976C71.1478 56.8897 71.3697 56.8625 71.6278 56.8988C71.9675 56.9306 72.2211 57.0714 72.3751 57.3121C72.5291 57.5573 72.6106 57.7844 72.6106 58.007V60.1507H71.9494H71.9539Z" fill="#A9ABAE"/>
<path d="M75.8396 57.353C76.1295 57.6754 76.2744 58.0796 76.2744 58.5656C76.2744 59.0516 76.1295 59.4513 75.8396 59.7828C75.5498 60.1098 75.1558 60.2778 74.6621 60.2778C74.1685 60.2778 73.7881 60.1143 73.4982 59.7828C73.2129 59.4558 73.068 59.047 73.068 58.5656C73.068 58.0842 73.2129 57.6754 73.4982 57.353C73.7835 57.0305 74.173 56.867 74.6621 56.867C75.1513 56.867 75.5453 57.0305 75.8396 57.353ZM75.3188 59.3604C75.4819 59.1515 75.5588 58.8881 75.5588 58.5656C75.5588 58.2431 75.4773 57.9797 75.3188 57.7799C75.1558 57.5755 74.9384 57.4756 74.6621 57.4756C74.3859 57.4756 74.173 57.5755 74.0145 57.7799C73.856 57.9797 73.779 58.2431 73.779 58.5656C73.779 58.8881 73.856 59.1515 74.0145 59.3604C74.173 59.5693 74.3904 59.6738 74.6621 59.6738C74.9339 59.6738 75.1558 59.5693 75.3188 59.3604Z" fill="#A9ABAE"/>
<path d="M76.7997 60.1371V55.7634H77.4519V60.1371H76.7997Z" fill="#A9ABAE"/>
<path d="M80.7489 57.353C81.0387 57.6754 81.1836 58.0796 81.1836 58.5656C81.1836 59.0516 81.0387 59.4513 80.7489 59.7828C80.459 60.1098 80.065 60.2778 79.5714 60.2778C79.0777 60.2778 78.6973 60.1143 78.4075 59.7828C78.1222 59.4558 77.9772 59.047 77.9772 58.5656C77.9772 58.0842 78.1222 57.6754 78.4075 57.353C78.6928 57.0305 79.0823 56.867 79.5714 56.867C80.0605 56.867 80.4545 57.0305 80.7489 57.353ZM80.2326 59.3604C80.3956 59.1515 80.4726 58.8881 80.4726 58.5656C80.4726 58.2431 80.3911 57.9797 80.2326 57.7799C80.0696 57.5755 79.8522 57.4756 79.5759 57.4756C79.2997 57.4756 79.0868 57.5755 78.9283 57.7799C78.7698 57.9797 78.6928 58.2431 78.6928 58.5656C78.6928 58.8881 78.7698 59.1515 78.9283 59.3604C79.0868 59.5693 79.3042 59.6738 79.5759 59.6738C79.8476 59.6738 80.0741 59.5693 80.2326 59.3604Z" fill="#A9ABAE"/>
<path d="M84.7252 59.6284C84.7252 60.1462 84.5621 60.505 84.236 60.7048C83.91 60.9046 83.5703 61 83.208 61C82.7461 61 82.3838 60.8865 82.1256 60.6594C81.8675 60.4323 81.7316 60.1825 81.709 59.91H82.3566C82.3656 60.0372 82.4426 60.1552 82.5876 60.2642C82.737 60.3732 82.9408 60.4278 83.2125 60.4278C83.4843 60.4278 83.6971 60.3596 83.842 60.2279C83.9824 60.0962 84.0549 59.9055 84.0549 59.6557V59.3922C83.9145 59.5285 83.7605 59.6329 83.5884 59.7102C83.4163 59.7874 83.2306 59.8282 83.0404 59.8282C82.6193 59.8282 82.2705 59.6874 81.9852 59.4059C81.6999 59.1243 81.5595 58.7609 81.5595 58.3158C81.5595 57.8708 81.6999 57.512 81.9852 57.2531C82.266 56.9942 82.6238 56.8625 83.045 56.8625C83.2352 56.8625 83.4163 56.8943 83.5839 56.9579C83.7515 57.0215 83.8964 57.1077 84.0187 57.2122C84.0187 57.0669 84.0232 56.9897 84.0232 56.9806H84.7206V59.6284H84.7252ZM83.8103 58.9789C83.9779 58.8154 84.0639 58.5929 84.0639 58.3204C84.0639 58.0479 83.9779 57.8299 83.8058 57.6845C83.6337 57.5392 83.4163 57.462 83.1627 57.462C82.9091 57.462 82.7053 57.5347 82.5332 57.68C82.3611 57.8253 82.2751 58.0388 82.2751 58.3204C82.2751 58.602 82.3611 58.82 82.5287 58.9835C82.6962 59.147 82.9091 59.2287 83.1627 59.2287C83.4163 59.2287 83.6428 59.147 83.8149 58.9789H83.8103Z" fill="#A9ABAE"/>
<path d="M86.8356 60.4277C86.7948 60.5413 86.736 60.6412 86.6544 60.7229C86.5729 60.8047 86.4959 60.8683 86.4144 60.9137C86.3284 60.9636 86.2333 60.9909 86.12 60.9954C86.0114 61 85.9072 61.0045 85.8166 61.0045H85.5222V60.4459H85.8347C85.9253 60.4459 86.0068 60.4277 86.0793 60.3869C86.1563 60.346 86.2061 60.296 86.2287 60.2234L86.3193 60.0326L85.0603 56.9987H85.7442L86.6544 59.1651L87.5421 56.9987H88.2214L86.8356 60.4232V60.4277Z" fill="#A9ABAE"/>
</g>
<defs>
<clipPath id="clip0_76_499">
<rect width="125" height="61" fill="white"/>
</clipPath>
</defs>
</svg>
