<svg width="125" height="61" viewBox="0 0 125 61" fill="none" xmlns="http://www.w3.org/2000/svg">
<g clip-path="url(#clip0_545_9)">
<path d="M15.3625 37.4738L13.8091 48.9054C13.6325 50.1452 13.1705 50.4132 12.3961 50.4132H10.5755C9.79655 50.4132 9.4433 50.059 9.1444 49.0507L7.83557 44.5816C7.79934 44.4408 7.78122 44.4227 7.69518 44.4227C7.60913 44.4227 7.5729 44.4408 7.53667 44.5816L6.22784 49.0507C5.92893 50.059 5.57569 50.4132 4.79673 50.4132H2.97614C2.19719 50.4132 1.73978 50.1452 1.56315 48.9054L0.00976562 37.4738V37.4375C0.00976562 37.2785 0.168274 37.2422 0.290553 37.2422H3.29769C3.43808 37.2422 3.54678 37.383 3.56036 37.5783L4.42537 45.4309C4.44348 45.5717 4.4616 45.6626 4.54764 45.6626C4.62011 45.6626 4.65181 45.5717 4.68804 45.4309L5.71155 41.852C5.87006 41.2662 6.20519 41.089 6.75318 41.089H8.61C9.15798 41.089 9.49312 41.2662 9.65163 41.852L10.6751 45.4309C10.7114 45.5717 10.7476 45.6626 10.8155 45.6626C10.9016 45.6626 10.9197 45.5717 10.9378 45.4309L11.8028 37.5783C11.8209 37.383 11.9251 37.2422 12.0655 37.2422H15.0726C15.1949 37.2422 15.3534 37.2785 15.3534 37.4375V37.4738H15.3625Z" fill="black"/>
<path d="M21.4587 50.5774C18.5241 50.5774 16.0332 49.0696 16.0332 44.7458V42.9201C16.0332 38.5963 18.5241 37.0703 21.4587 37.0703C24.3934 37.0703 26.8843 38.5963 26.8843 42.9201V44.7458C26.8843 49.0696 24.3934 50.5774 21.4587 50.5774ZM23.2431 42.9201C23.2431 41.0216 22.6951 40.245 21.4587 40.245C20.2224 40.245 19.6744 41.0262 19.6744 42.9201V44.7458C19.6744 46.6443 20.2224 47.4028 21.4587 47.4028C22.6951 47.4028 23.2431 46.6397 23.2431 44.7458V42.9201Z" fill="black"/>
<path d="M43.0193 37.4738L41.466 48.9054C41.2893 50.1452 40.8274 50.4132 40.053 50.4132H38.2324C37.4534 50.4132 37.1002 50.059 36.8013 49.0507L35.4924 44.5816C35.4562 44.4408 35.4381 44.4227 35.352 44.4227C35.266 44.4227 35.2298 44.4408 35.1935 44.5816L33.8847 49.0507C33.5858 50.059 33.228 50.4132 32.4536 50.4132H30.633C29.8541 50.4132 29.3966 50.1452 29.22 48.9054L27.6621 37.4738V37.4375C27.6621 37.2785 27.8206 37.2422 27.9429 37.2422H30.95C31.0904 37.2422 31.1991 37.383 31.2127 37.5783L32.0777 45.4309C32.0958 45.5717 32.1139 45.6626 32.2 45.6626C32.2724 45.6626 32.3042 45.5717 32.3404 45.4309L33.3639 41.852C33.5224 41.2662 33.8575 41.089 34.4055 41.089H36.2623C36.8103 41.089 37.1455 41.2662 37.304 41.852L38.3275 45.4309C38.3637 45.5717 38.3999 45.6626 38.4679 45.6626C38.5539 45.6626 38.572 45.5717 38.5902 45.4309L39.4552 37.5783C39.4733 37.383 39.5774 37.2422 39.7178 37.2422H42.7204C42.8427 37.2422 43.0012 37.2785 43.0012 37.4375V37.4738H43.0193Z" fill="black"/>
<path d="M48.8529 50.5767C47.4037 50.5767 46.2171 50.3814 45.2842 50.1135C45.1076 50.059 44.9128 49.9545 44.9128 49.7592V47.5792C44.9128 47.3476 45.0713 47.2249 45.248 47.2249H45.2842C46.0269 47.2976 47.9336 47.4884 48.871 47.4884C49.736 47.4884 49.9851 47.1523 49.9851 46.5846C49.9851 46.2303 49.8085 46.035 49.1563 45.6444L46.6111 44.1366C44.9491 43.1601 44.5098 41.9565 44.5098 40.5895C44.5098 38.6592 45.5695 37.0605 49.1428 37.0605C50.5376 37.0605 52.4307 37.2922 53.1553 37.5056C53.3138 37.5601 53.4723 37.6464 53.4723 37.8417V40.0581C53.4723 40.2352 53.35 40.3942 53.1553 40.3942H53.1191C52.3944 40.3397 50.3791 40.1626 49.1065 40.1626C48.4544 40.1626 48.2234 40.3942 48.2234 40.7666C48.2234 41.0845 48.3819 41.2616 49.1428 41.6704L51.5294 42.9466C53.2459 43.8686 53.8618 45.0404 53.8618 46.5074C53.8618 48.4921 52.4986 50.5677 48.862 50.5677L48.8529 50.5767Z" fill="black"/>
<path d="M65.3286 37.6185L62.7291 43.7362C62.3577 44.6037 61.9501 45.067 61.4746 45.2623V50.0674C61.4746 50.2627 61.3161 50.4217 61.1214 50.4217H58.241C58.0463 50.4217 57.9059 50.2627 57.9059 50.0674V45.2623C57.4304 45.067 57.0228 44.6082 56.6514 43.7362L54.0519 37.6185C54.0337 37.564 54.0156 37.5277 54.0156 37.4777C54.0156 37.3551 54.1017 37.2461 54.2647 37.2461H57.4621C57.6387 37.2461 57.7428 37.4051 57.8153 37.5822L59.5136 42.2783C59.568 42.4191 59.6359 42.4555 59.6902 42.4555C59.7446 42.4555 59.8125 42.4191 59.8669 42.2783L61.5652 37.5822C61.6376 37.4051 61.7418 37.2461 61.9184 37.2461H65.1203C65.2788 37.2461 65.3694 37.3506 65.3694 37.4777C65.3694 37.5322 65.3513 37.5686 65.3331 37.6185H65.3286Z" fill="black"/>
<path d="M69.6895 50.5767C68.2402 50.5767 67.0582 50.3814 66.1208 50.1135C65.9441 50.059 65.7494 49.9545 65.7494 49.7592V47.5792C65.7494 47.3476 65.9079 47.2249 66.0845 47.2249H66.1208C66.8635 47.2976 68.7746 47.4884 69.7076 47.4884C70.5726 47.4884 70.8217 47.1523 70.8217 46.5846C70.8217 46.2303 70.645 46.035 69.9884 45.6444L67.4432 44.1366C65.7811 43.1601 65.3418 41.9565 65.3418 40.5895C65.3418 38.6592 66.4015 37.0605 69.9748 37.0605C71.3697 37.0605 73.2627 37.2922 73.9873 37.5056C74.1458 37.5601 74.3043 37.6464 74.3043 37.8417V40.0581C74.3043 40.2352 74.1821 40.3942 73.9873 40.3942H73.9511C73.2265 40.3397 71.2111 40.1626 69.9385 40.1626C69.2819 40.1626 69.0554 40.3942 69.0554 40.7666C69.0554 41.0845 69.2139 41.2616 69.9748 41.6704L72.3615 42.9466C74.0779 43.8686 74.6938 45.0404 74.6938 46.5074C74.6938 48.4921 73.3352 50.5677 69.694 50.5677L69.6895 50.5767Z" fill="black"/>
<path d="M84.5583 40.1891H81.9225V50.0629C81.9225 50.2582 81.764 50.4171 81.5693 50.4171H78.689C78.4942 50.4171 78.3357 50.2582 78.3357 50.0629V40.1891H75.6501C75.4554 40.1891 75.2969 40.0483 75.2969 39.853V37.5822C75.2969 37.3869 75.4554 37.2461 75.6501 37.2461H84.5583C84.7531 37.2461 84.9297 37.3869 84.9297 37.5822V39.853C84.9297 40.0483 84.7531 40.1891 84.5583 40.1891Z" fill="black"/>
<path d="M93.6925 50.364C93.0222 50.4503 91.9263 50.5774 90.2098 50.5774C87.9454 50.5774 85.6855 50.046 85.6855 46.6079V41.0398C85.6855 37.6199 87.95 37.0703 90.2098 37.0703C91.9263 37.0703 93.0177 37.1929 93.6925 37.2838C93.9235 37.3201 94.0458 37.4246 94.0458 37.638V39.7999C94.0458 39.9952 93.8872 40.1541 93.6925 40.1541H90.1238C89.4898 40.1541 89.2769 40.3494 89.2769 41.0398V42.3342H93.6246C93.8193 42.3342 93.9778 42.4931 93.9778 42.6884V44.7776C93.9778 44.9729 93.8193 45.1319 93.6246 45.1319H89.2769V46.6034C89.2769 47.2937 89.4898 47.489 90.1238 47.489H93.6925C93.8872 47.489 94.0458 47.648 94.0458 47.8433V50.0052C94.0458 50.2186 93.9235 50.3231 93.6925 50.3594V50.364Z" fill="black"/>
<path d="M103.026 50.255C102.564 50.414 101.663 50.5729 100.553 50.5729C97.3013 50.5729 95.1094 48.8017 95.1094 44.7413V42.9156C95.1094 38.8553 97.3013 37.084 100.553 37.084C101.667 37.084 102.568 37.2429 103.026 37.4019C103.307 37.4927 103.415 37.5427 103.415 37.7925V40.0634C103.415 40.295 103.307 40.3994 103.098 40.3994H103.044C102.319 40.3268 101.577 40.2405 100.571 40.2405C99.6156 40.2405 98.7506 40.6674 98.7506 42.9156V44.7413C98.7506 46.9759 99.5974 47.4164 100.571 47.4164C101.545 47.4164 102.324 47.3256 103.044 47.2575H103.098C103.311 47.2575 103.415 47.3619 103.415 47.5936V49.8644C103.415 50.096 103.307 50.1642 103.026 50.255Z" fill="black"/>
<path d="M121.083 32.3636H111.664C109.934 32.3636 107.973 31.5461 107.973 29.3525V19.9057C107.973 18.961 107.329 17.4531 105.527 17.4531H96.1071C94.7575 17.4531 93.666 18.5522 93.666 19.9057V29.3525C93.666 30.7059 94.7575 31.8005 96.1071 31.8005H105.527C107.565 31.8005 109.218 32.5135 109.218 34.8071V44.2584C109.218 45.6119 110.309 46.7064 111.659 46.7064H121.079C122.429 46.7064 123.52 45.6119 123.52 44.2584V34.8071C123.52 33.6944 122.691 32.3591 121.079 32.3591L121.083 32.3636Z" fill="#8DC63F"/>
<path d="M97.5817 14.3473H107.002C109.456 14.3473 110.697 15.3193 110.697 17.3585V26.8053C110.697 28.1587 111.789 29.2578 113.138 29.2578H122.558C123.908 29.2578 124.999 28.1587 124.999 26.8053V17.3585C124.999 16.0505 123.976 14.9105 122.558 14.9105H113.138C111.005 14.9105 109.447 13.6025 109.447 11.9039V2.44799C109.447 1.00372 108.487 0 107.002 0H97.5817C96.2321 0 95.1406 1.09456 95.1406 2.44799V11.8993C95.1406 13.2528 96.2366 14.3473 97.5817 14.3473Z" fill="#27AAE1"/>
<path d="M18.6275 60.1468H17.9255L17.3684 58.212H17.3322L16.7752 60.1468H16.0641L15.1855 57.0039H15.8196L16.3993 59.1431H16.4355L16.9971 57.0039H17.6855L18.2561 59.1294H18.2923L18.8584 57.0039H19.506L18.6184 60.1468H18.6275Z" fill="#A9ABAE"/>
<path d="M22.4279 57.3532C22.7177 57.6756 22.8627 58.0798 22.8627 58.5658C22.8627 59.0518 22.7177 59.4514 22.4279 59.783C22.138 60.11 21.744 60.278 21.2504 60.278C20.7568 60.278 20.3718 60.1145 20.0865 59.783C19.8012 59.456 19.6562 59.0472 19.6562 58.5658C19.6562 58.0844 19.8012 57.6756 20.0865 57.3532C20.3718 57.0307 20.7613 56.8672 21.2504 56.8672C21.7395 56.8672 22.1335 57.0307 22.4279 57.3532ZM21.9071 59.3606C22.0701 59.1517 22.1471 58.8883 22.1471 58.5658C22.1471 58.2433 22.0656 57.9799 21.9071 57.7801C21.7486 57.5757 21.5267 57.4758 21.2504 57.4758C20.9741 57.4758 20.7613 57.5757 20.6028 57.7801C20.4443 57.9799 20.3627 58.2433 20.3627 58.5658C20.3627 58.8883 20.4443 59.1517 20.6028 59.3606C20.7613 59.5695 20.9787 59.674 21.2504 59.674C21.5221 59.674 21.7486 59.5695 21.9071 59.3606Z" fill="#A9ABAE"/>
<path d="M26.453 60.1468H25.751L25.194 58.212H25.1578L24.6007 60.1468H23.8942L23.0156 57.0039H23.6497L24.2293 59.1431H24.2656L24.8272 57.0039H25.5155L26.0816 59.1294H26.1179L26.684 57.0039H27.3316L26.4439 60.1468H26.453Z" fill="#A9ABAE"/>
<path d="M32.2552 58.7604C32.3775 58.8875 32.4363 59.051 32.4228 59.2554C32.4046 59.537 32.2643 59.7777 31.9971 59.9775C31.7299 60.1774 31.4128 60.2773 31.0415 60.2773C30.4799 60.2773 30.0949 60.132 29.8866 59.8413C29.6783 59.5506 29.5696 59.3054 29.5605 59.1055H30.2036C30.2218 59.2554 30.2987 59.3871 30.4391 59.5007C30.5795 59.6142 30.7697 59.6687 31.0098 59.6687C31.209 59.6687 31.3721 59.6324 31.4944 59.5642C31.6166 59.4961 31.6891 59.4007 31.7117 59.2872C31.7253 59.2054 31.6982 59.1328 31.6393 59.0783C31.5804 59.0192 31.4944 58.9647 31.3857 58.9239C31.2136 58.8512 31.0279 58.7921 30.8241 58.7558C30.6203 58.7149 30.4527 58.6786 30.3214 58.6377C30.1131 58.5696 29.95 58.4651 29.8277 58.3244C29.7055 58.1881 29.6511 58.0064 29.6692 57.793C29.6874 57.5613 29.8096 57.3433 30.0406 57.1435C30.2716 56.9437 30.5841 56.8438 30.9826 56.8438C31.4174 56.8438 31.748 56.9618 31.9744 57.198C32.2009 57.4342 32.3095 57.6658 32.296 57.8929H31.6619C31.6619 57.8066 31.6121 57.7112 31.5079 57.6068C31.3992 57.5023 31.2226 57.4478 30.9781 57.4478C30.7652 57.4478 30.6112 57.4841 30.5071 57.5568C30.4029 57.6295 30.3486 57.7112 30.344 57.8066C30.344 57.9201 30.3803 58.0019 30.4618 58.0473C30.5433 58.0927 30.6384 58.1336 30.7562 58.1654C30.8966 58.2063 31.0777 58.2471 31.2906 58.2835C31.5034 58.3244 31.6846 58.3789 31.8385 58.4606C31.9925 58.5378 32.1329 58.6377 32.2552 58.7649V58.7604Z" fill="#A9ABAE"/>
<path d="M34.2649 60.4271C34.2242 60.5406 34.1653 60.6405 34.0838 60.7223C34.0068 60.804 33.9252 60.8676 33.8437 60.913C33.7577 60.963 33.658 60.9902 33.5494 60.9948C33.4407 60.9993 33.3365 61.0039 33.2459 61.0039H32.9516V60.4452H33.264C33.3546 60.4452 33.4361 60.4271 33.5131 60.3862C33.5901 60.3453 33.6399 60.2953 33.6626 60.2227L33.7532 60.0319L32.4941 56.998H33.178L34.0883 59.1645L34.9714 56.998H35.6507L34.2649 60.4225V60.4271Z" fill="#A9ABAE"/>
<path d="M38.3366 58.7604C38.4589 58.8875 38.5178 59.051 38.5042 59.2554C38.4861 59.537 38.3457 59.7777 38.0785 59.9775C37.8113 60.1774 37.4942 60.2773 37.1229 60.2773C36.5613 60.2773 36.1764 60.132 35.968 59.8413C35.7597 59.5506 35.651 59.3054 35.6465 59.1055H36.2896C36.3077 59.2554 36.3847 59.3871 36.5251 59.5007C36.6655 59.6142 36.8557 59.6687 37.0957 59.6687C37.295 59.6687 37.458 59.6324 37.5803 59.5642C37.7026 59.4961 37.775 59.4007 37.7977 59.2872C37.8113 59.2054 37.7886 59.1328 37.7297 59.0783C37.6709 59.0192 37.5848 58.9647 37.4761 58.9239C37.304 58.8512 37.1184 58.7921 36.9146 58.7558C36.7108 58.7149 36.5432 58.6786 36.4164 58.6377C36.2081 58.5696 36.045 58.4651 35.9227 58.3244C35.8005 58.1881 35.7461 58.0064 35.7642 57.793C35.7823 57.5613 35.9046 57.3433 36.1356 57.1435C36.3666 56.9437 36.6836 56.8438 37.0776 56.8438C37.5124 56.8438 37.843 56.9618 38.0694 57.198C38.2958 57.4342 38.4 57.6658 38.3909 57.8929H37.7569C37.7569 57.8066 37.7071 57.7112 37.6029 57.6068C37.4942 57.5023 37.3176 57.4478 37.0731 57.4478C36.8602 57.4478 36.7017 57.4841 36.6021 57.5568C36.4979 57.6295 36.4436 57.7112 36.439 57.8066C36.439 57.9201 36.4753 58.0019 36.5568 58.0473C36.6383 58.0927 36.7334 58.1336 36.8512 58.1654C36.9915 58.2063 37.1727 58.2471 37.3856 58.2835C37.5984 58.3244 37.7841 58.3789 37.9335 58.4606C38.0875 58.5378 38.2279 58.6377 38.3502 58.7649L38.3366 58.7604Z" fill="#A9ABAE"/>
<path d="M39.7776 60.1551C39.6553 60.1551 39.5512 60.1279 39.4606 60.0779C39.3745 60.028 39.2976 59.9689 39.2342 59.9053C39.1662 59.8327 39.1255 59.7509 39.0983 59.6556C39.0756 59.5647 39.0621 59.4421 39.0621 59.2831V57.5664H38.6816V57.0077H39.0621V56.0312H39.7323V56.9986H40.1897V57.5618H39.7369V59.3558C39.7369 59.4058 39.764 59.4557 39.8184 59.5057C39.8727 59.542 39.9361 59.5647 39.9995 59.5783C40.0629 59.5874 40.1263 59.592 40.1897 59.592V60.1506H39.7731L39.7776 60.1551Z" fill="#A9ABAE"/>
<path d="M41.2351 58.7831C41.2577 59.0283 41.3574 59.2372 41.5204 59.4144C41.688 59.5915 41.8872 59.6778 42.1227 59.6778C42.3582 59.6778 42.5303 59.6278 42.6526 59.5234C42.7794 59.4189 42.8564 59.3235 42.8836 59.2327H43.6037C43.5357 59.4598 43.3863 59.6869 43.1598 59.923C42.9334 60.1592 42.5892 60.2773 42.1363 60.2773C41.6834 60.2773 41.2804 60.1093 40.9769 59.7777C40.6735 59.4462 40.5195 59.0374 40.5195 58.5605C40.5195 58.0836 40.669 57.6658 40.9634 57.3388C41.2577 57.0118 41.6472 56.8438 42.1318 56.8438C42.553 56.8438 42.9334 57.0027 43.264 57.3161C43.5946 57.6295 43.7486 58.12 43.7169 58.7876H41.2306L41.2351 58.7831ZM43.0059 58.2335C42.9787 57.9973 42.8836 57.8021 42.7296 57.6567C42.5756 57.5068 42.3718 57.4342 42.1273 57.4342C41.8918 57.4342 41.697 57.5068 41.5385 57.6476C41.3845 57.793 41.2804 57.9883 41.2351 58.2381H43.0059V58.2335Z" fill="#A9ABAE"/>
<path d="M47.8207 60.1457V58.2018C47.8207 57.9747 47.7935 57.8021 47.7346 57.6704C47.6803 57.5432 47.5399 57.4797 47.318 57.4887C47.1187 57.5024 46.9647 57.575 46.856 57.7158C46.7473 57.8566 46.693 58.0519 46.693 58.3017V60.132H46.0408V58.1973C46.0408 57.9702 46.0091 57.7976 45.9457 57.6659C45.8823 57.5387 45.7374 57.4751 45.5155 57.4842C45.3298 57.4978 45.1804 57.5705 45.0717 57.7113C44.963 57.8521 44.9132 58.0474 44.9177 58.2972V60.1275H44.252V56.9982H44.9177V57.2844C45.0173 57.1799 45.1396 57.0845 45.2891 56.9892C45.4385 56.8938 45.6287 56.8574 45.8552 56.8711C46.0046 56.8892 46.1405 56.9347 46.2628 57.0073C46.385 57.0845 46.4847 57.1981 46.5571 57.3479C46.6386 57.2526 46.7654 57.1436 46.9375 57.0164C47.1096 56.8847 47.3497 56.8393 47.6576 56.8711C47.9565 56.9029 48.1739 57.03 48.3007 57.2526C48.4275 57.4751 48.4909 57.7204 48.4909 57.9838V60.1275H47.8207V60.1457Z" fill="#A9ABAE"/>
<path d="M54.3683 60.1826L53.9653 59.7239C53.7524 59.9146 53.5305 60.0554 53.304 60.1462C53.0731 60.2371 52.8376 60.2825 52.5976 60.2825C52.2398 60.2825 51.9228 60.1599 51.6465 59.9191C51.3702 59.6739 51.2344 59.356 51.2344 58.9608C51.2344 58.6611 51.325 58.4068 51.5061 58.1842C51.6873 57.9617 51.9273 57.7664 52.2217 57.5938C52.1356 57.4893 52.0405 57.3485 51.9273 57.185C51.8186 57.017 51.7507 56.8444 51.7235 56.6718C51.6827 56.3493 51.7778 56.0768 52.0043 55.8498C52.2307 55.6227 52.5296 55.5137 52.9055 55.5137C53.2542 55.5137 53.5441 55.6227 53.775 55.8361C54.0015 56.0541 54.1011 56.313 54.0739 56.6128C54.0513 56.8853 53.9471 57.1124 53.766 57.294C53.5848 57.4757 53.381 57.6256 53.1591 57.7437L53.9653 58.7111C54.0105 58.6066 54.0558 58.4794 54.1011 58.3295C54.1464 58.1842 54.1691 58.0661 54.1736 57.9798H54.7759C54.7487 58.1842 54.6944 58.4022 54.6219 58.6384C54.5495 58.8746 54.4634 59.0653 54.3728 59.2197L55.1292 60.1826H54.3638H54.3683ZM52.6066 58.048C52.43 58.1433 52.2624 58.2569 52.1039 58.3977C51.9409 58.5385 51.8594 58.7156 51.8548 58.9291C51.8548 59.1153 51.9182 59.2878 52.0586 59.4377C52.199 59.5876 52.3892 59.6694 52.6247 59.6784C52.7923 59.6784 52.9599 59.6466 53.1229 59.5694C53.2905 59.4922 53.4444 59.3832 53.5803 59.2333L52.6021 58.0434L52.6066 58.048ZM53.2135 57.0215C53.3539 56.9125 53.4354 56.7854 53.458 56.6309C53.4852 56.4765 53.4444 56.3403 53.3312 56.2267C53.218 56.1132 53.0776 56.0541 52.901 56.0541C52.7244 56.0541 52.5976 56.1086 52.4843 56.2131C52.3756 56.3176 52.3349 56.4493 52.3621 56.6037C52.3938 56.7309 52.4526 56.8535 52.5296 56.967C52.6066 57.0851 52.6927 57.1896 52.7832 57.2804C52.9327 57.2123 53.0731 57.1214 53.2089 57.0124L53.2135 57.0215Z" fill="#A9ABAE"/>
<path d="M58.4846 60.1551C58.3624 60.1551 58.2582 60.1279 58.1676 60.0779C58.0816 60.028 58.0046 59.9689 57.9412 59.9053C57.8778 59.8327 57.8325 59.7509 57.8053 59.6556C57.7827 59.5647 57.7691 59.4421 57.7691 59.2831V57.5664H57.3887V57.0077H57.7691V56.0312H58.4394V56.9986H58.8968V57.5618H58.4439V59.3558C58.4439 59.4058 58.4711 59.4557 58.5209 59.5057C58.5798 59.542 58.6386 59.5647 58.702 59.5783C58.7654 59.5874 58.8288 59.592 58.8922 59.592V60.1506H58.4756L58.4846 60.1551Z" fill="#A9ABAE"/>
<path d="M59.9447 58.7831C59.9673 59.0283 60.0624 59.2372 60.23 59.4144C60.3976 59.5915 60.5968 59.6778 60.8369 59.6778C61.0769 59.6778 61.2399 59.6278 61.3667 59.5234C61.4935 59.4189 61.5705 59.3235 61.5977 59.2327H62.3178C62.2499 59.4598 62.1004 59.6869 61.8694 59.923C61.643 60.1592 61.2988 60.2773 60.8414 60.2773C60.384 60.2773 59.9854 60.1093 59.682 59.7777C59.3741 59.4462 59.2246 59.0374 59.2246 58.5605C59.2246 58.0836 59.3695 57.6658 59.6684 57.3388C59.9628 57.0118 60.3523 56.8438 60.8369 56.8438C61.258 56.8438 61.6385 57.0027 61.9691 57.3161C62.2997 57.6295 62.4537 58.12 62.422 58.7876H59.9356L59.9447 58.7831ZM61.7155 58.2335C61.6883 57.9973 61.5977 57.8021 61.4392 57.6567C61.2852 57.5068 61.0814 57.4342 60.8369 57.4342C60.5923 57.4342 60.4021 57.5068 60.2481 57.6476C60.0896 57.793 59.99 57.9883 59.9447 58.2381H61.7155V58.2335Z" fill="#A9ABAE"/>
<path d="M65.1836 58.0123C65.161 57.9033 65.084 57.7853 64.9617 57.6581C64.8395 57.5309 64.6538 57.4673 64.4092 57.4673C64.1284 57.4673 63.9111 57.5718 63.7525 57.7762C63.594 57.9805 63.517 58.244 63.517 58.5664C63.517 58.8889 63.594 59.1523 63.7571 59.3612C63.9156 59.5656 64.133 59.6701 64.4092 59.6701C64.6266 59.6701 64.7987 59.611 64.9346 59.4975C65.0704 59.3794 65.1519 59.2568 65.1791 59.1205H65.8947C65.8222 59.4067 65.6637 59.6701 65.4146 59.9153C65.1701 60.1606 64.8304 60.2787 64.4047 60.2787C63.9111 60.2787 63.5216 60.1152 63.2363 59.7836C62.9509 59.4566 62.8105 59.0479 62.8105 58.5664C62.8105 58.085 62.9555 57.6763 63.2363 57.3492C63.5216 57.0222 63.9111 56.8633 64.4047 56.8633C64.8349 56.8633 65.1791 56.9905 65.4418 57.2402C65.6999 57.49 65.8584 57.7489 65.9083 58.0169H65.1882L65.1836 58.0123Z" fill="#A9ABAE"/>
<path d="M68.4899 60.151V58.2934C68.4899 58.03 68.4355 57.8347 68.3268 57.7166C68.2181 57.594 68.0551 57.5349 67.8287 57.5349C67.5932 57.5349 67.3984 57.6122 67.249 57.7711C67.0995 57.9301 67.0271 58.1299 67.0271 58.3752V60.151H66.3613V55.7637H67.0271V57.2942C67.1629 57.1716 67.3214 57.0671 67.5071 56.9809C67.6928 56.8946 67.9192 56.8673 68.1774 56.8946C68.517 56.9264 68.7616 57.0626 68.9111 57.3033C69.065 57.544 69.142 57.7757 69.142 57.9937V60.1419H68.4808L68.4899 60.151Z" fill="#A9ABAE"/>
<path d="M71.9541 60.1504V58.2928C71.9496 58.0294 71.8952 57.8341 71.7865 57.716C71.6778 57.5934 71.5103 57.5343 71.2884 57.5343C71.0529 57.5343 70.8626 57.6115 70.7132 57.766C70.5683 57.9204 70.4958 58.1248 70.4958 58.3746V60.1504H69.8301V57.0075H70.4958V57.2891C70.6317 57.1665 70.7857 57.062 70.9668 56.9757C71.148 56.8894 71.3699 56.8622 71.628 56.8985C71.9677 56.9303 72.2213 57.0711 72.3753 57.3118C72.5293 57.557 72.6108 57.7841 72.6108 58.0067V60.1504H71.9496H71.9541Z" fill="#A9ABAE"/>
<path d="M75.84 57.3532C76.1298 57.6756 76.2748 58.0798 76.2748 58.5658C76.2748 59.0518 76.1298 59.4514 75.84 59.783C75.5502 60.11 75.1561 60.278 74.6625 60.278C74.1689 60.278 73.7884 60.1145 73.4986 59.783C73.2133 59.456 73.0684 59.0472 73.0684 58.5658C73.0684 58.0844 73.2133 57.6756 73.4986 57.3532C73.7839 57.0307 74.1734 56.8672 74.6625 56.8672C75.1516 56.8672 75.5456 57.0307 75.84 57.3532ZM75.3192 59.3606C75.4822 59.1517 75.5592 58.8883 75.5592 58.5658C75.5592 58.2433 75.4777 57.9799 75.3192 57.7801C75.1561 57.5757 74.9388 57.4758 74.6625 57.4758C74.3862 57.4758 74.1734 57.5757 74.0149 57.7801C73.8564 57.9799 73.7794 58.2433 73.7794 58.5658C73.7794 58.8883 73.8564 59.1517 74.0149 59.3606C74.1734 59.5695 74.3908 59.674 74.6625 59.674C74.9342 59.674 75.1561 59.5695 75.3192 59.3606Z" fill="#A9ABAE"/>
<path d="M76.8008 60.1374V55.7637H77.4529V60.1374H76.8008Z" fill="#A9ABAE"/>
<path d="M80.7502 57.3532C81.04 57.6756 81.1849 58.0798 81.1849 58.5658C81.1849 59.0518 81.04 59.4514 80.7502 59.783C80.4603 60.11 80.0663 60.278 79.5727 60.278C79.079 60.278 78.6986 60.1145 78.4088 59.783C78.1234 59.456 77.9785 59.0472 77.9785 58.5658C77.9785 58.0844 78.1234 57.6756 78.4088 57.3532C78.6941 57.0307 79.0835 56.8672 79.5727 56.8672C80.0618 56.8672 80.4558 57.0307 80.7502 57.3532ZM80.2339 59.3606C80.3969 59.1517 80.4739 58.8883 80.4739 58.5658C80.4739 58.2433 80.3924 57.9799 80.2339 57.7801C80.0708 57.5757 79.8535 57.4758 79.5772 57.4758C79.3009 57.4758 79.0881 57.5757 78.9296 57.7801C78.7711 57.9799 78.6941 58.2433 78.6941 58.5658C78.6941 58.8883 78.7711 59.1517 78.9296 59.3606C79.0881 59.5695 79.3055 59.674 79.5772 59.674C79.8489 59.674 80.0754 59.5695 80.2339 59.3606Z" fill="#A9ABAE"/>
<path d="M84.7262 59.6292C84.7262 60.147 84.5632 60.5058 84.2371 60.7056C83.911 60.9054 83.5713 61.0008 83.209 61.0008C82.7471 61.0008 82.3848 60.8873 82.1266 60.6602C81.8685 60.4331 81.7326 60.1833 81.71 59.9108H82.3576C82.3667 60.038 82.4437 60.156 82.5886 60.265C82.738 60.374 82.9418 60.4285 83.2136 60.4285C83.4853 60.4285 83.6982 60.3604 83.8431 60.2287C83.9835 60.097 84.0559 59.9062 84.0559 59.6565V59.393C83.9155 59.5293 83.7616 59.6337 83.5895 59.7109C83.4174 59.7882 83.2317 59.829 83.0415 59.829C82.6203 59.829 82.2716 59.6882 81.9863 59.4067C81.7009 59.1251 81.5605 58.7617 81.5605 58.3166C81.5605 57.8715 81.7009 57.5127 81.9863 57.2539C82.267 56.995 82.6248 56.8633 83.046 56.8633C83.2362 56.8633 83.4174 56.8951 83.5849 56.9587C83.7525 57.0222 83.8974 57.1085 84.0197 57.213C84.0197 57.0677 84.0242 56.9905 84.0242 56.9814H84.7217V59.6292H84.7262ZM83.8114 58.9797C83.9789 58.8162 84.065 58.5937 84.065 58.3212C84.065 58.0487 83.9789 57.8307 83.8068 57.6853C83.6347 57.54 83.4174 57.4628 83.1638 57.4628C82.9101 57.4628 82.7063 57.5355 82.5342 57.6808C82.3622 57.8261 82.2761 58.0396 82.2761 58.3212C82.2761 58.6028 82.3621 58.8208 82.5297 58.9843C82.6973 59.1478 82.9101 59.2295 83.1638 59.2295C83.4174 59.2295 83.6438 59.1478 83.8159 58.9797H83.8114Z" fill="#A9ABAE"/>
<path d="M86.8358 60.4271C86.7951 60.5406 86.7362 60.6405 86.6547 60.7223C86.5732 60.804 86.4962 60.8676 86.4147 60.913C86.3286 60.963 86.2335 60.9902 86.1203 60.9948C86.0116 60.9993 85.9074 61.0039 85.8169 61.0039H85.5225V60.4452H85.835C85.9255 60.4452 86.0071 60.4271 86.0795 60.3862C86.1565 60.3453 86.2063 60.2953 86.229 60.2227L86.3196 60.0319L85.0605 56.998H85.7444L86.6547 59.1645L87.5423 56.998H88.2217L86.8358 60.4225V60.4271Z" fill="#A9ABAE"/>
</g>
<defs>
<clipPath id="clip0_545_9">
<rect width="125" height="61" fill="white"/>
</clipPath>
</defs>
</svg>
